<?xml version="1.0" standalone="no"?>
<!DOCTYPE svg PUBLIC "-//W3C//DTD SVG 20010904//EN"
 "http://www.w3.org/TR/2001/REC-SVG-20010904/DTD/svg10.dtd">
<svg version="1.0" xmlns="http://www.w3.org/2000/svg"
 width="999.000000pt" height="1280.000000pt" viewBox="0 0 999.000000 1280.000000"
 preserveAspectRatio="xMidYMid meet">
<metadata>
Created by potrace 1.15, written by Peter Selinger 2001-2017
</metadata>
<g transform="translate(0.000000,1280.000000) scale(0.100000,-0.100000)"
fill="#000000" stroke="none">
<path d="M8202 12783 c-79 -39 -80 -125 -3 -240 55 -81 67 -129 57 -224 -10
-99 -14 -109 -47 -109 -16 0 -46 -7 -66 -15 -32 -13 -41 -13 -86 0 -58 17
-195 20 -249 5 -52 -15 -98 -56 -98 -87 0 -15 16 -54 35 -89 19 -34 35 -64 35
-67 0 -2 -14 -7 -30 -11 -40 -7 -127 -90 -152 -142 -10 -23 -41 -60 -67 -82
-41 -35 -49 -47 -55 -88 -3 -26 -2 -50 3 -53 18 -12 -1 -71 -31 -93 -39 -27
-61 -79 -52 -122 4 -23 0 -45 -14 -72 -10 -22 -22 -51 -26 -66 -3 -15 -12 -33
-19 -40 -19 -20 -47 -85 -77 -177 -21 -63 -34 -88 -52 -97 -26 -14 -41 -39
-58 -105 -7 -23 -22 -56 -35 -73 -13 -17 -27 -44 -31 -61 -4 -16 -15 -41 -25
-54 -23 -29 -41 -93 -33 -115 9 -23 -34 -136 -63 -166 -54 -56 -91 -120 -126
-218 -20 -57 -37 -118 -37 -136 0 -25 -6 -36 -26 -46 -14 -8 -30 -23 -36 -33
-14 -27 -51 -158 -50 -180 0 -9 -3 -15 -8 -12 -8 5 -49 -74 -65 -127 -5 -12
-16 -29 -26 -36 -12 -8 -19 -25 -19 -46 0 -24 -7 -38 -27 -53 -30 -22 -70 -89
-60 -99 4 -4 20 -1 37 6 17 7 33 11 35 8 10 -10 -48 -58 -70 -58 -28 0 -58
-44 -76 -112 -10 -38 -17 -47 -40 -52 -16 -3 -39 -21 -55 -43 -15 -21 -45 -55
-67 -75 -47 -45 -47 -73 0 -73 52 0 48 -12 -9 -25 -90 -22 -128 -61 -128 -134
0 -24 -6 -39 -20 -49 -11 -8 -18 -20 -15 -28 3 -9 -6 -19 -23 -27 -17 -7 -37
-28 -47 -50 -10 -20 -21 -44 -25 -52 -4 -8 -16 -17 -26 -18 -10 -2 -28 -12
-39 -22 -11 -10 -36 -26 -55 -35 -19 -10 -52 -35 -73 -55 -20 -21 -54 -45 -75
-55 -20 -9 -53 -25 -72 -35 -20 -11 -58 -24 -84 -30 -26 -6 -54 -17 -62 -25
-8 -8 -31 -17 -52 -21 -20 -3 -67 -24 -103 -45 -36 -21 -74 -39 -85 -39 -11 0
-46 -14 -77 -31 -51 -27 -57 -29 -58 -12 0 14 -2 15 -6 3 -16 -42 -29 -46
-140 -44 l-108 2 -32 -46 c-17 -26 -36 -72 -42 -102 -7 -30 -22 -80 -34 -110
-25 -60 -179 -306 -207 -330 -9 -8 -97 -80 -196 -159 -159 -129 -193 -152
-311 -208 -283 -135 -627 -227 -1058 -283 -296 -39 -367 -50 -466 -75 -53 -14
-107 -25 -119 -25 -42 0 -174 -61 -329 -152 -329 -193 -561 -438 -716 -754
-28 -57 -125 -444 -155 -616 -10 -62 -26 -133 -35 -158 -29 -83 -45 -214 -60
-490 -17 -312 -32 -396 -95 -525 -24 -50 -62 -106 -102 -150 -72 -79 -85 -102
-60 -107 10 -2 -2 -13 -33 -28 -33 -18 -58 -40 -77 -70 -51 -83 -52 -86 -38
-130 12 -36 11 -42 -6 -61 -13 -15 -19 -36 -19 -67 0 -38 -4 -48 -22 -57 -13
-7 -38 -32 -57 -57 -19 -25 -42 -48 -50 -51 -10 -4 -16 -19 -16 -37 0 -16 -12
-73 -27 -125 -15 -52 -24 -98 -20 -101 13 -13 35 6 67 55 19 28 35 49 37 47 9
-9 -37 -83 -72 -116 -20 -19 -42 -46 -47 -60 -35 -84 -48 -129 -48 -162 0 -20
-11 -70 -25 -110 -45 -130 -45 -131 -34 -171 6 -22 16 -37 25 -37 10 0 13 -6
9 -18 -16 -52 -35 -181 -35 -239 0 -61 1 -65 21 -60 16 4 19 2 14 -11 -27 -66
-29 -118 -27 -657 1 -130 -3 -247 -9 -270 -6 -22 -46 -114 -91 -205 -44 -91
-100 -217 -125 -280 l-44 -114 21 -93 c11 -52 20 -107 20 -124 0 -33 -46 -99
-68 -99 -8 0 -27 -8 -43 -17 -35 -21 -37 -47 -10 -172 16 -77 20 -84 49 -97
47 -19 169 -33 327 -36 119 -3 145 0 167 14 14 9 35 14 46 11 34 -8 35 28 2
128 -32 101 -62 159 -82 159 -7 0 -2 7 10 16 26 18 27 42 7 112 -9 29 -12 58
-8 65 11 17 13 39 21 224 8 174 17 205 47 159 12 -18 20 -58 25 -126 3 -55 9
-102 12 -105 3 -3 8 44 12 105 8 140 16 200 27 200 5 0 9 -10 9 -22 0 -13 7
-43 15 -68 l14 -45 -1 100 c0 55 -5 106 -10 112 -6 7 -8 30 -5 50 3 21 0 68
-6 105 -9 56 -8 72 6 105 9 21 21 60 27 87 6 27 16 58 22 70 7 11 22 61 35
110 35 138 198 585 263 721 16 33 36 85 44 116 11 39 36 82 84 145 37 50 83
126 102 170 36 81 224 459 251 504 55 90 110 173 149 225 25 34 50 68 55 76
92 143 144 210 228 294 l100 100 9 -35 c6 -19 8 -82 6 -140 -3 -89 -12 -134
-57 -295 -30 -104 -71 -230 -93 -280 -88 -200 -101 -244 -102 -335 -1 -102 -1
-103 137 -288 111 -149 149 -214 196 -337 31 -84 138 -381 196 -547 20 -58 51
-189 76 -320 46 -248 55 -399 30 -498 -15 -60 -12 -73 44 -165 14 -25 27 -69
34 -118 6 -43 17 -91 26 -106 13 -26 67 -61 94 -61 6 0 11 -4 11 -9 0 -4 18
-29 40 -54 34 -39 40 -52 40 -91 0 -36 6 -52 25 -71 13 -14 28 -25 34 -25 5 0
12 -13 16 -28 3 -15 14 -42 25 -60 16 -26 24 -31 47 -27 16 3 115 9 220 14
159 7 199 12 230 28 73 38 56 115 -43 199 -31 27 -54 55 -54 66 0 35 -30 77
-93 129 -66 55 -72 64 -82 121 -3 21 -21 58 -40 83 -19 24 -41 60 -49 80 -8
19 -42 67 -75 106 -50 59 -61 80 -66 118 -2 25 -23 100 -45 166 -22 66 -56
197 -74 290 -19 94 -44 208 -56 254 -12 46 -25 141 -30 210 -5 69 -14 142 -19
161 -6 19 -11 51 -11 72 0 20 -11 83 -25 140 -41 169 -42 200 -11 262 18 36
28 74 30 112 4 73 5 76 78 319 34 110 78 265 99 345 43 165 80 276 168 505 64
166 158 368 170 363 172 -92 453 -167 687 -184 137 -10 486 19 626 52 27 6 27
6 23 -42 -3 -27 -10 -135 -15 -241 -12 -207 -30 -354 -54 -419 -8 -23 -33
-149 -56 -280 -22 -131 -53 -281 -68 -332 -24 -87 -25 -97 -13 -150 22 -96 23
-178 6 -397 -10 -115 -21 -327 -25 -470 -7 -238 -11 -276 -43 -450 -35 -184
-62 -278 -107 -378 -20 -45 -32 -114 -31 -182 0 -17 15 -64 32 -105 29 -67 33
-87 37 -197 3 -86 0 -141 -11 -190 -26 -113 -9 -144 75 -142 24 1 99 -10 168
-24 170 -35 252 -42 325 -27 33 7 72 13 87 14 24 1 62 36 38 36 -5 0 -10 6
-10 13 0 21 -98 135 -145 167 -30 21 -45 38 -45 53 -1 37 -35 101 -84 156
l-46 52 6 127 c5 86 3 135 -4 149 -8 15 -6 62 8 189 46 399 112 864 129 908 7
16 23 83 37 148 44 211 70 284 121 349 37 48 45 65 45 99 0 22 4 40 9 40 23 0
48 91 64 235 37 336 96 544 234 826 33 68 98 211 144 317 l84 193 84 48 c46
27 98 57 116 67 17 10 33 16 36 14 47 -60 100 -136 120 -177 31 -61 41 -101
67 -276 25 -174 54 -280 143 -532 41 -115 77 -223 81 -239 4 -15 29 -76 55
-135 49 -108 131 -352 152 -451 15 -70 30 -100 95 -183 69 -89 104 -163 149
-317 77 -265 279 -879 315 -960 51 -112 98 -277 106 -370 8 -94 26 -134 70
-155 19 -9 36 -25 39 -38 23 -105 33 -173 28 -198 -7 -38 36 -103 80 -119 78
-28 361 -34 453 -10 17 4 62 5 98 1 61 -7 69 -5 82 13 20 29 17 95 -5 132 -10
17 -46 55 -80 85 -34 29 -61 59 -61 67 0 32 -36 75 -125 151 -104 90 -150 156
-161 231 -10 79 -25 110 -79 171 -60 67 -81 115 -151 344 -25 82 -68 204 -94
270 -80 197 -108 280 -165 491 -62 227 -69 302 -35 369 11 22 20 53 20 71 0
17 7 37 15 44 22 19 10 66 -30 115 -46 56 -91 150 -119 247 -39 134 -74 305
-86 418 -6 58 -23 159 -38 225 -37 169 -35 289 6 504 37 191 39 258 12 439
-32 213 -30 239 41 452 33 102 66 191 72 198 6 8 17 31 25 51 60 160 76 272
62 421 -11 118 -18 148 -80 370 -79 282 -101 398 -102 530 0 88 6 108 45 149
19 20 59 68 89 106 74 92 438 632 438 648 0 7 6 21 14 32 7 11 29 49 48 85 19
36 50 92 69 125 19 33 56 110 83 170 27 61 77 169 111 240 69 144 117 279 165
460 17 66 50 172 72 235 53 154 166 584 241 925 20 88 50 212 67 275 17 63 46
205 66 315 19 110 50 265 69 345 48 203 65 286 65 322 0 24 12 44 50 84 28 29
50 60 50 69 0 24 68 15 150 -20 109 -47 207 -58 445 -51 116 3 274 14 353 24
l142 18 22 -24 c13 -13 56 -40 96 -60 68 -33 81 -36 161 -36 62 0 95 4 118 17
29 15 35 15 68 1 44 -18 62 -13 99 25 49 51 46 92 -15 228 -64 143 -117 201
-254 280 -49 28 -97 58 -105 66 -8 8 -44 44 -79 80 -35 36 -128 112 -208 169
-140 100 -144 104 -157 153 -8 28 -17 85 -20 128 -3 43 -10 86 -16 97 -12 22
-155 125 -196 140 -19 8 -42 8 -74 1 -25 -5 -71 -12 -103 -15 l-58 -5 -50 76
c-27 42 -83 142 -124 223 -76 151 -106 189 -172 217 -43 17 -81 16 -121 -4z"/>
</g>
</svg>
