<?xml version="1.0" encoding="UTF-8" standalone="no"?>
<!DOCTYPE svg PUBLIC "-//W3C//DTD SVG 1.1//EN" "http://www.w3.org/Graphics/SVG/1.1/DTD/svg11.dtd">
<svg width="800px" height="600px" version="1.1" xmlns="http://www.w3.org/2000/svg" xmlns:xlink="http://www.w3.org/1999/xlink" xml:space="preserve" xmlns:serif="http://www.serif.com/" style="fill-rule:evenodd;clip-rule:evenodd;stroke-linejoin:round;stroke-miterlimit:2;">
    <g>
        <g transform="matrix(1.1803,0,0,1.1803,-50.9531,-58.6795)">
            <path d="M308.822,527.67L266.989,541.272C260.398,545.109 252.743,547.319 244.577,547.35C237.251,547.774 229.971,545.907 223.522,542.216C209.187,534.685 199.403,519.651 199.403,502.351C199.403,477.847 219.03,457.892 243.406,457.362L268.235,449.288C268.2,448.277 268.183,447.262 268.183,446.244C268.183,441.997 268.843,437.169 270.003,431.972C269.668,431.902 269.335,431.791 269.012,431.639L245.463,420.547C237.048,424.455 226.745,422.158 220.866,414.491C214.585,406.299 212.985,384.39 216.006,374.858C221.875,387.902 246.737,381.647 253.018,389.839C256.682,394.618 257.885,400.515 256.829,406.003L275.111,414.615C287.596,379.171 312.587,337.647 312.587,337.647L345.497,261.418C310.563,254.946 281.806,235.489 295.662,205.399C300.138,195.679 302.066,184.037 303.729,172.059C300.799,177.335 296.058,181.638 289.976,183.93C274.965,189.587 230.634,178.094 230.634,178.094C230.634,178.094 256.353,140.201 271.364,134.544C284.993,129.408 300.227,136.303 305.363,149.931C305.798,151.084 306.146,152.249 306.412,153.419C308.385,141.665 311.248,130.379 317.197,121.076L301.963,100.6C301.528,100.016 301.322,99.317 301.323,98.576C293.146,101.068 284.995,99.441 280.733,93.713C274.827,85.775 278.611,72.948 289.178,65.086C299.744,57.224 313.118,57.286 319.024,65.224C323.286,70.953 322.502,79.227 317.765,86.344C318.474,86.555 319.085,86.953 319.52,87.537L333.207,105.934C342.365,100.794 354.726,97.768 371.608,97.768C387.296,97.768 398.828,100.303 407.386,104.689L420.147,87.537C420.582,86.953 421.193,86.555 421.902,86.344C417.165,79.227 416.381,70.953 420.643,65.224C426.549,57.286 439.923,57.224 450.489,65.086C461.056,72.948 464.84,85.775 458.934,93.713C454.672,99.441 446.521,101.068 438.344,98.576C438.345,99.317 438.139,100.016 437.704,100.6L423.565,119.604C429.265,128.91 431.538,140.411 433.098,152.529C433.121,152.441 433.144,152.356 433.168,152.27C437.035,138.228 451.574,129.968 465.615,133.834C481.081,138.093 510.162,173.472 510.162,173.472C510.162,173.472 467.07,188.976 451.604,184.717C444.342,182.718 438.626,177.863 435.334,171.699C436.833,183.6 438.981,195.307 444.22,205.399C460.202,236.185 429.524,256.444 392.934,262.152L425.528,337.647C425.528,337.647 471.863,410.865 471.863,446.244C471.863,447.355 471.842,448.462 471.799,449.559L495.794,457.362C520.17,457.892 539.797,477.847 539.797,502.351C539.797,519.651 530.012,534.685 515.677,542.216C509.229,545.907 501.949,547.774 494.622,547.35C486.457,547.319 478.801,545.109 472.211,541.272L424.051,525.612C422.221,525.612 420.393,525.687 418.564,525.82C419.733,530.897 421.273,535.634 421.273,535.634L367.273,535.634C367.273,535.634 367.657,534.406 368.187,532.541C365.153,532.51 362.279,532.316 359.51,532.011C360.132,534.176 360.606,535.634 360.606,535.634L306.606,535.634C306.606,535.634 307.755,531.959 308.822,527.67Z" style="fill:white;"/>
        </g>
        <g transform="matrix(1.1803,0,0,1.1803,-50.9531,-58.6795)">
            <path d="M308.822,527.67L266.989,541.272C260.398,545.109 252.743,547.319 244.577,547.35C237.251,547.774 229.971,545.907 223.522,542.216C209.187,534.685 199.403,519.651 199.403,502.351C199.403,477.847 219.03,457.892 243.406,457.362L268.235,449.288C268.2,448.277 268.183,447.262 268.183,446.244C268.183,441.997 268.843,437.169 270.003,431.972C269.668,431.902 269.335,431.791 269.012,431.639L245.463,420.547C237.048,424.455 226.745,422.158 220.866,414.491C214.585,406.299 212.985,384.39 216.006,374.858C221.875,387.902 246.737,381.647 253.018,389.839C256.682,394.618 257.885,400.515 256.829,406.003L275.111,414.615C287.596,379.171 312.587,337.647 312.587,337.647L345.497,261.418C310.563,254.946 281.806,235.489 295.662,205.399C300.138,195.679 302.066,184.037 303.729,172.059C300.799,177.335 296.058,181.638 289.976,183.93C274.965,189.587 230.634,178.094 230.634,178.094C230.634,178.094 256.353,140.201 271.364,134.544C284.993,129.408 300.227,136.303 305.363,149.931C305.798,151.084 306.146,152.249 306.412,153.419C308.385,141.665 311.248,130.379 317.197,121.076L301.963,100.6C301.528,100.016 301.322,99.317 301.323,98.576C293.146,101.068 284.995,99.441 280.733,93.713C274.827,85.775 278.611,72.948 289.178,65.086C299.744,57.224 313.118,57.286 319.024,65.224C323.286,70.953 322.502,79.227 317.765,86.344C318.474,86.555 319.085,86.953 319.52,87.537L333.207,105.934C342.365,100.794 354.726,97.768 371.608,97.768C387.296,97.768 398.828,100.303 407.386,104.689L420.147,87.537C420.582,86.953 421.193,86.555 421.902,86.344C417.165,79.227 416.381,70.953 420.643,65.224C426.549,57.286 439.923,57.224 450.489,65.086C461.056,72.948 464.84,85.775 458.934,93.713C454.672,99.441 446.521,101.068 438.344,98.576C438.345,99.317 438.139,100.016 437.704,100.6L423.565,119.604C429.265,128.91 431.538,140.411 433.098,152.529C433.121,152.441 433.144,152.356 433.168,152.27C437.035,138.228 451.574,129.968 465.615,133.834C481.081,138.093 510.162,173.472 510.162,173.472C510.162,173.472 467.07,188.976 451.604,184.717C444.342,182.718 438.626,177.863 435.334,171.699C436.833,183.6 438.981,195.307 444.22,205.399C460.202,236.185 429.524,256.444 392.934,262.152L425.528,337.647C425.528,337.647 471.863,410.865 471.863,446.244C471.863,447.355 471.842,448.462 471.799,449.559L495.794,457.362C520.17,457.892 539.797,477.847 539.797,502.351C539.797,519.651 530.012,534.685 515.677,542.216C509.229,545.907 501.949,547.774 494.622,547.35C486.457,547.319 478.801,545.109 472.211,541.272L424.051,525.612C422.221,525.612 420.393,525.687 418.564,525.82C419.733,530.897 421.273,535.634 421.273,535.634L367.273,535.634C367.273,535.634 367.657,534.406 368.187,532.541C365.153,532.51 362.279,532.316 359.51,532.011C360.132,534.176 360.606,535.634 360.606,535.634L306.606,535.634C306.606,535.634 307.755,531.959 308.822,527.67Z" style="fill:rgb(109,75,0);"/>
        </g>
        <g transform="matrix(1.1803,0,0,1.1803,-50.9531,-58.6795)">
            <path d="M308.822,527.67L266.989,541.272C260.398,545.109 252.743,547.319 244.577,547.35C237.251,547.774 229.971,545.907 223.522,542.216C209.187,534.685 199.403,519.651 199.403,502.351C199.403,477.847 219.03,457.892 243.406,457.362L268.235,449.288C268.2,448.277 268.183,447.262 268.183,446.244C268.183,441.997 268.843,437.169 270.003,431.972C269.668,431.902 269.335,431.791 269.012,431.639L245.463,420.547C237.048,424.455 226.745,422.158 220.866,414.491C214.585,406.299 212.985,384.39 216.006,374.858C221.875,387.902 246.737,381.647 253.018,389.839C256.682,394.618 257.885,400.515 256.829,406.003L275.111,414.615C287.596,379.171 312.587,337.647 312.587,337.647L345.497,261.418C310.563,254.946 281.806,235.489 295.662,205.399C300.138,195.679 302.066,184.037 303.729,172.059C300.799,177.335 296.058,181.638 289.976,183.93C274.965,189.587 230.634,178.094 230.634,178.094C230.634,178.094 256.353,140.201 271.364,134.544C284.993,129.408 300.227,136.303 305.363,149.931C305.798,151.084 306.146,152.249 306.412,153.419C308.385,141.665 311.248,130.379 317.197,121.076L301.963,100.6C301.528,100.016 301.322,99.317 301.323,98.576C293.146,101.068 284.995,99.441 280.733,93.713C274.827,85.775 278.611,72.948 289.178,65.086C299.744,57.224 313.118,57.286 319.024,65.224C323.286,70.953 322.502,79.227 317.765,86.344C318.474,86.555 319.085,86.953 319.52,87.537L333.207,105.934C342.365,100.794 354.726,97.768 371.608,97.768C387.296,97.768 398.828,100.303 407.386,104.689L420.147,87.537C420.582,86.953 421.193,86.555 421.902,86.344C417.165,79.227 416.381,70.953 420.643,65.224C426.549,57.286 439.923,57.224 450.489,65.086C461.056,72.948 464.84,85.775 458.934,93.713C454.672,99.441 446.521,101.068 438.344,98.576C438.345,99.317 438.139,100.016 437.704,100.6L423.565,119.604C429.265,128.91 431.538,140.411 433.098,152.529C433.121,152.441 433.144,152.356 433.168,152.27C437.035,138.228 451.574,129.968 465.615,133.834C481.081,138.093 510.162,173.472 510.162,173.472C510.162,173.472 467.07,188.976 451.604,184.717C444.342,182.718 438.626,177.863 435.334,171.699C436.833,183.6 438.981,195.307 444.22,205.399C460.202,236.185 429.524,256.444 392.934,262.152L425.528,337.647C425.528,337.647 471.863,410.865 471.863,446.244C471.863,447.355 471.842,448.462 471.799,449.559L495.794,457.362C520.17,457.892 539.797,477.847 539.797,502.351C539.797,519.651 530.012,534.685 515.677,542.216C509.229,545.907 501.949,547.774 494.622,547.35C486.457,547.319 478.801,545.109 472.211,541.272L424.051,525.612C422.221,525.612 420.393,525.687 418.564,525.82C419.733,530.897 421.273,535.634 421.273,535.634L367.273,535.634C367.273,535.634 367.657,534.406 368.187,532.541C365.153,532.51 362.279,532.316 359.51,532.011C360.132,534.176 360.606,535.634 360.606,535.634L306.606,535.634C306.606,535.634 307.755,531.959 308.822,527.67ZM440.015,479.437C443.389,476.505 449.865,469.74 454.16,461.979C458.831,453.538 449.142,448.357 441.956,447.914C434.77,447.472 430.935,450.812 428.119,460.376C423.084,477.477 428.863,489.128 440.015,479.437ZM302.45,444.904C306.495,447.033 314.746,452.339 321.621,459.362C329.098,467.001 323.309,475.441 317.558,478.061C311.808,480.681 307.207,478.252 300.782,468.858C289.293,452.06 289.08,437.863 302.45,444.904ZM452.403,395.649C453.711,398.73 455.852,405.42 456.209,412.091C456.598,419.347 448.427,419.777 443.471,417.777C438.515,415.776 437.031,412.268 438.249,404.841C440.428,391.561 448.081,385.463 452.403,395.649Z" style="fill:rgb(255,199,0);"/>
        </g>
        <g transform="matrix(1.1803,0,0,1.1803,-50.9531,-58.6795)">
            <path d="M314.825,505.724C314.682,505.049 314.606,504.35 314.606,503.634L314.606,406.535C290.445,381.635 312.587,337.647 312.587,337.647L345.497,261.418C310.563,254.946 281.806,235.489 295.662,205.399C300.138,195.679 302.066,184.037 303.729,172.059C300.799,177.335 296.058,181.638 289.976,183.93C274.965,189.587 230.634,178.094 230.634,178.094C230.634,178.094 256.353,140.201 271.364,134.544C284.993,129.408 300.227,136.303 305.363,149.931C305.798,151.084 306.146,152.249 306.412,153.419C308.385,141.665 311.248,130.379 317.197,121.076L301.963,100.6C301.528,100.016 301.322,99.317 301.323,98.576C293.146,101.068 284.995,99.441 280.733,93.713C274.827,85.775 278.611,72.948 289.178,65.086C299.744,57.224 313.118,57.286 319.024,65.224C323.286,70.953 322.502,79.227 317.765,86.344C318.474,86.555 319.085,86.953 319.52,87.537L333.207,105.934C342.365,100.794 354.726,97.768 371.608,97.768C387.296,97.768 398.828,100.303 407.386,104.689L420.147,87.537C420.582,86.953 421.193,86.555 421.902,86.344C417.165,79.227 416.381,70.953 420.643,65.224C426.549,57.286 439.923,57.224 450.489,65.086C461.056,72.948 464.84,85.775 458.934,93.713C454.672,99.441 446.521,101.068 438.344,98.576C438.345,99.317 438.139,100.016 437.704,100.6L423.565,119.604C429.265,128.91 431.538,140.411 433.098,152.529C433.121,152.441 433.144,152.356 433.168,152.27C437.035,138.228 451.574,129.968 465.615,133.834C481.081,138.093 510.162,173.472 510.162,173.472C510.162,173.472 467.07,188.976 451.604,184.717C444.342,182.718 438.626,177.863 435.334,171.699C436.833,183.6 438.981,195.307 444.22,205.399C460.202,236.185 429.524,256.444 392.934,262.152L425.528,337.647C425.528,337.647 446.826,387.709 415.273,411.252L415.273,503.634C415.273,505.03 414.986,506.359 414.469,507.566C416.321,510.358 417.273,513.633 417.273,517.134C417.273,523.33 421.273,535.634 421.273,535.634L367.273,535.634C367.273,535.634 371.273,522.842 371.273,517.134C371.273,512.83 372.712,508.868 375.492,505.724C375.348,505.049 375.273,504.35 375.273,503.634L375.273,423.078C373.261,423.167 371.193,423.213 369.057,423.213C363.861,423.213 359.054,422.98 354.606,422.537L354.606,503.634C354.606,505.03 354.32,506.359 353.802,507.566C355.654,510.358 356.606,513.633 356.606,517.134C356.606,523.33 360.606,535.634 360.606,535.634L306.606,535.634C306.606,535.634 310.606,522.842 310.606,517.134C310.606,512.83 312.045,508.868 314.825,505.724Z" style="fill:rgb(109,75,0);"/>
        </g>
        <g transform="matrix(1.1803,0,0,1.1803,-50.9531,-58.6795)">
            <path d="M314.825,505.724C314.682,505.049 314.606,504.35 314.606,503.634L314.606,406.535C290.445,381.635 312.587,337.647 312.587,337.647L345.497,261.418C310.563,254.946 281.806,235.489 295.662,205.399C300.138,195.679 302.066,184.037 303.729,172.059C300.799,177.335 296.058,181.638 289.976,183.93C274.965,189.587 230.634,178.094 230.634,178.094C230.634,178.094 256.353,140.201 271.364,134.544C284.993,129.408 300.227,136.303 305.363,149.931C305.798,151.084 306.146,152.249 306.412,153.419C311.325,124.145 321.765,97.768 371.608,97.768C421.459,97.768 429.343,123.365 433.098,152.529C433.121,152.441 433.144,152.356 433.168,152.27C437.035,138.228 451.574,129.968 465.615,133.834C481.081,138.093 510.162,173.472 510.162,173.472C510.162,173.472 467.07,188.976 451.604,184.717C444.342,182.718 438.626,177.863 435.334,171.699C436.833,183.6 438.981,195.307 444.22,205.399C460.202,236.185 429.524,256.444 392.934,262.152L425.528,337.647C425.528,337.647 446.826,387.709 415.273,411.252L415.273,503.634C415.273,505.03 414.986,506.359 414.469,507.566C416.321,510.358 417.273,513.633 417.273,517.134C417.273,523.33 421.273,535.634 421.273,535.634L367.273,535.634C367.273,535.634 371.273,522.842 371.273,517.134C371.273,512.83 372.712,508.868 375.492,505.724C375.348,505.049 375.273,504.35 375.273,503.634L375.273,423.078C373.261,423.167 371.193,423.213 369.057,423.213C363.861,423.213 359.054,422.98 354.606,422.537L354.606,503.634C354.606,505.03 354.32,506.359 353.802,507.566C355.654,510.358 356.606,513.633 356.606,517.134C356.606,523.33 360.606,535.634 360.606,535.634L306.606,535.634C306.606,535.634 310.606,522.842 310.606,517.134C310.606,512.83 312.045,508.868 314.825,505.724ZM392.603,461.456C391.594,465.347 390.144,473.882 390.583,482.611C391.061,492.104 399.78,493.672 404.791,491.649C409.802,489.626 410.946,485.196 408.743,475.28C404.803,457.55 395.939,448.594 392.603,461.456ZM347.896,448.157C345.675,452.617 340.551,461.109 334.674,466.547C328.284,472.46 324.374,458.844 324.046,448.946C323.719,439.049 326.25,433.981 333.488,430.682C346.431,424.783 355.239,433.416 347.896,448.157ZM388.566,385.159C386.19,389.597 382.146,399.168 380.949,408.545C379.648,418.742 392.642,418.578 400.737,415.31C408.831,412.043 411.528,406.991 410.282,396.704C408.055,378.309 396.419,370.489 388.566,385.159ZM337.165,355.598C341.936,359.439 350.998,368.212 356.728,378.064C362.959,388.778 348.092,394.495 337.356,394.548C326.621,394.6 321.198,390.225 317.824,378.255C311.791,356.852 321.392,342.9 337.165,355.598ZM380.834,325.258C377.941,330.585 373.005,342.068 371.511,353.304C369.887,365.524 385.588,365.26 395.385,361.305C405.182,357.35 408.466,351.286 407.014,338.973C404.417,316.954 390.398,307.648 380.834,325.258ZM365.531,272.493C367.907,276.931 371.951,286.501 373.148,295.878C374.449,306.076 361.455,305.911 353.361,302.643C345.266,299.376 342.569,294.324 343.815,284.037C346.042,265.643 357.678,257.822 365.531,272.493ZM287.11,155.436C285.469,156.197 283.752,157.171 282.046,158.338C275.365,162.908 271.375,168.715 273.141,171.296C275.435,168.589 279.457,164.915 284.286,161.612C288.454,158.76 292.662,156.569 295.892,155.279C296.868,155.337 297.763,155.421 298.559,155.529C298.142,152.429 291.29,150.789 283.268,151.868C275.246,152.948 269.071,156.34 269.488,159.44C272.754,158.054 277.999,156.58 283.797,155.8C284.918,155.649 286.027,155.528 287.11,155.436ZM449.584,155.436C451.225,156.197 452.942,157.171 454.648,158.338C461.329,162.908 465.319,168.715 463.553,171.296C461.259,168.589 457.237,164.915 452.408,161.612C448.24,158.76 444.032,156.569 440.802,155.279C439.826,155.337 438.931,155.421 438.135,155.529C438.552,152.429 445.403,150.789 453.426,151.868C461.448,152.948 467.623,156.34 467.206,159.44C463.939,158.054 458.695,156.58 452.897,155.8C451.776,155.649 450.667,155.528 449.584,155.436Z" style="fill:rgb(255,199,0);"/>
        </g>
        <g id="Tail" transform="matrix(1.1803,0,0,1.1803,-50.9531,-58.6795)">
            <path d="M216.006,374.858C212.985,384.39 214.585,406.299 220.866,414.491C227.669,423.363 240.395,425.044 249.268,418.241C258.14,411.438 259.821,398.712 253.018,389.839C246.737,381.647 221.875,387.902 216.006,374.858Z" style="fill:rgb(109,75,0);"/>
        </g>
        <g transform="matrix(1.1803,0,0,1.1803,-50.9531,-58.6795)">
            <circle cx="244.403" cy="502.351" r="45" style="fill:rgb(109,75,0);"/>
        </g>
        <g transform="matrix(1.1803,0,0,1.1803,-50.9531,-58.6795)">
            <circle cx="494.797" cy="502.351" r="45" style="fill:rgb(109,75,0);"/>
        </g>
        <g transform="matrix(1.1803,0,0,1.1803,-50.9531,-58.6795)">
            <path d="M394.273,498.634C409.174,498.634 417.273,506.924 417.273,517.134C417.273,523.33 421.273,535.634 421.273,535.634L367.273,535.634C367.273,535.634 371.273,522.842 371.273,517.134C371.273,506.924 379.371,498.634 394.273,498.634Z" style="fill:rgb(109,75,0);"/>
        </g>
        <g transform="matrix(1.1803,0,0,1.1803,-50.9531,-58.6795)">
            <path d="M333.606,498.634C348.508,498.634 356.606,506.924 356.606,517.134C356.606,523.33 360.606,535.634 360.606,535.634L306.606,535.634C306.606,535.634 310.606,522.842 310.606,517.134C310.606,506.924 318.704,498.634 333.606,498.634Z" style="fill:rgb(109,75,0);"/>
        </g>
        <g id="Hair" transform="matrix(1.1803,0,0,1.1803,-50.9531,-58.6795)">
            <path d="M400.319,152.552C380.178,139.087 391.076,121.192 382.11,109.166C375.623,100.464 363.29,98.666 354.588,105.154C345.886,111.641 344.088,123.973 350.576,132.675C359.541,144.701 381.325,150.497 400.319,152.552Z" style="fill:rgb(109,75,0);"/>
        </g>
        <g transform="matrix(1.1803,0,0,1.1803,-50.9531,-58.6795)">
            <ellipse cx="371.052" cy="232.347" rx="54.483" ry="29.391" style="fill:rgb(109,75,0);"/>
        </g>
        <g transform="matrix(1.1803,0,0,1.1803,-50.9531,-58.6795)">
            <path d="M371.052,202.956C401.122,202.956 425.535,216.126 425.535,232.347C425.535,248.569 401.122,261.738 371.052,261.738C340.982,261.738 316.569,248.569 316.569,232.347C316.569,216.126 340.982,202.956 371.052,202.956ZM336.428,240.176C336.428,243.672 352.111,253.176 371.428,253.176C390.745,253.176 406.428,243.672 406.428,240.176C400.595,241.924 386.92,251.176 371.428,251.176C355.936,251.176 342.261,241.924 336.428,240.176Z" style="fill:white;"/>
        </g>
        <g id="Left-Eye" serif:id="Left Eye" transform="matrix(1.1803,0,0,1.1803,-50.9531,-58.6795)">
            <ellipse cx="412.128" cy="185.131" rx="15.898" ry="14.877" style="fill:white;"/>
        </g>
        <g id="Left-Pupil" serif:id="Left Pupil" transform="matrix(1.1803,0,0,1.1803,-50.9531,-58.6795)">
            <ellipse cx="412.128" cy="187.256" rx="13.627" ry="12.751"/>
        </g>
        <g id="Right-Eye" serif:id="Right Eye" transform="matrix(1.1803,0,0,1.1803,-50.9531,-58.6795)">
            <ellipse cx="330.83" cy="185.71" rx="15.898" ry="14.877" style="fill:white;"/>
        </g>
        <g id="Right-Pupil" serif:id="Right Pupil" transform="matrix(1.1803,0,0,1.1803,-50.9531,-58.6795)">
            <ellipse cx="330.83" cy="187.835" rx="13.627" ry="12.751"/>
        </g>
    </g>
</svg>
