<?xml version="1.0" encoding="UTF-8" standalone="no"?><!DOCTYPE svg PUBLIC "-//W3C//DTD SVG 1.1//EN" "http://www.w3.org/Graphics/SVG/1.1/DTD/svg11.dtd"><svg width="100%" height="100%" viewBox="0 0 7467 7467" version="1.1" xmlns="http://www.w3.org/2000/svg" xmlns:xlink="http://www.w3.org/1999/xlink" xml:space="preserve" xmlns:serif="http://www.serif.com/" style="fill-rule:evenodd;clip-rule:evenodd;stroke-linejoin:round;stroke-miterlimit:1.41421;"><text x="1769.74px" y="6909.74px" style="font-family:'Lato-Bold', 'Lato', sans-serif;font-weight:700;font-size:1250px;">mac<tspan x="4042.24px " y="6909.74px ">O</tspan>S</text><path d="M5911.74,4037.8c-79.984,256.357 -206.111,512.713 -378.383,769.07c-264.559,401.967 -528.094,602.95 -790.603,602.95c-100.492,0 -244.051,-32.813 -430.679,-98.441c-176.373,-65.627 -331.212,-98.441 -464.518,-98.441c-125.102,0 -270.712,33.84 -436.831,101.518c-166.119,69.729 -301.475,104.593 -406.069,104.593c-311.729,0 -620.382,-265.585 -925.959,-796.756c-301.476,-535.272 -452.213,-1051.06 -452.213,-1547.37c0,-467.595 115.873,-851.104 347.619,-1150.53c231.746,-295.323 522.967,-442.984 873.663,-442.984c147.661,0 329.162,30.762 544.501,92.288c213.289,61.526 354.798,92.288 424.527,92.288c92.288,0 238.924,-34.864 439.907,-104.593c209.187,-69.729 386.586,-104.594 532.196,-104.594c244.052,0 462.467,66.653 655.247,199.958c106.645,73.831 213.289,176.374 319.933,307.628c-162.017,137.407 -278.916,258.408 -350.695,363.001c-133.306,192.78 -199.958,405.043 -199.958,636.79c0,254.305 70.754,482.975 212.263,686.009c141.509,203.035 303.526,332.238 486.052,387.611Zm-1156.68,-3608.47c0,125.102 -29.737,264.56 -89.212,418.373c-61.525,153.814 -156.89,295.323 -286.094,424.527c-110.746,110.746 -221.492,184.576 -332.238,221.492c-75.881,22.559 -182.525,39.991 -319.933,52.297c6.153,-305.577 86.136,-569.112 239.95,-790.604c151.763,-219.441 408.12,-371.204 769.07,-455.289c2.05,6.153 4.614,17.432 7.69,33.839c3.077,16.407 5.64,27.687 7.691,33.839c0,8.204 0.513,18.458 1.538,30.763c1.025,12.305 1.538,22.559 1.538,30.763Z" style="fill-rule:nonzero;"/></svg>