<?xml version="1.0" encoding="UTF-8" standalone="no"?><!DOCTYPE svg PUBLIC "-//W3C//DTD SVG 1.1//EN" "http://www.w3.org/Graphics/SVG/1.1/DTD/svg11.dtd"><svg width="100%" height="100%" viewBox="0 0 7467 7467" version="1.1" xmlns="http://www.w3.org/2000/svg" xmlns:xlink="http://www.w3.org/1999/xlink" xml:space="preserve" xmlns:serif="http://www.serif.com/" style="fill-rule:evenodd;clip-rule:evenodd;stroke-linejoin:round;stroke-miterlimit:1.41421;"><text x="2280.75px" y="6909.74px" style="font-family:'Lato-Bold', 'Lato', sans-serif;font-weight:700;font-size:1250px;">Linux</text><path d="M3551.74,1628.88c-20.353,1.85 -34.693,11.564 -43.019,29.141c-8.326,17.578 -16.19,26.367 -23.591,26.367c-9.251,1.85 -13.877,-2.776 -13.877,-13.877c0,-22.203 17.578,-36.08 52.733,-41.631l27.754,0Zm241.458,38.855c-7.401,1.85 -18.04,-4.163 -31.917,-18.04c-13.877,-13.877 -30.067,-18.04 -48.569,-12.489c44.406,-20.353 74.01,-18.503 88.812,5.551c5.551,11.101 2.775,19.427 -8.326,24.978Zm-974.159,1185.09c-7.401,-1.85 -12.952,0.926 -16.653,8.327c-3.7,7.401 -7.863,18.965 -12.489,34.692c-4.626,15.727 -9.714,28.216 -15.265,37.468c-5.55,9.251 -14.802,21.277 -27.753,36.08c-18.503,20.352 -19.428,31.454 -2.776,33.304c7.401,1.85 18.965,-4.626 34.693,-19.428c15.727,-14.802 27.291,-31.454 34.692,-49.956c1.85,-5.551 3.7,-12.027 5.551,-19.428c1.85,-7.401 3.7,-12.952 5.55,-16.652c1.851,-3.701 3.238,-7.864 4.163,-12.49c0.926,-4.625 1.388,-8.326 1.388,-11.101l0,-8.326l-2.775,-6.939l-8.326,-5.551Zm2372.95,996.363c0,-33.305 -50.882,-72.16 -152.646,-116.566c7.401,-27.754 14.34,-53.195 20.816,-76.323c6.476,-23.129 11.101,-47.182 13.877,-72.16c2.775,-24.979 5.55,-44.869 8.326,-59.671c2.775,-14.802 3.238,-35.617 1.388,-62.446c-1.851,-26.829 -2.776,-44.869 -2.776,-54.12c0,-9.251 -3.238,-29.604 -9.714,-61.058c-6.476,-31.455 -10.176,-50.42 -11.101,-56.896c-0.925,-6.476 -5.551,-29.604 -13.877,-69.384c-8.326,-39.781 -13.414,-64.297 -15.265,-73.548c-18.502,-88.812 -61.983,-184.1 -130.443,-285.864c-68.459,-101.764 -135.068,-171.149 -199.827,-208.154c44.406,37.005 97.138,113.791 158.197,230.357c160.972,299.741 210.929,556.926 149.87,771.556c-20.353,74.01 -66.609,112.866 -138.769,116.566c-57.358,7.401 -92.975,-9.714 -106.852,-51.345c-13.877,-41.63 -21.278,-118.878 -22.203,-231.744c-0.925,-112.866 -11.564,-211.854 -31.917,-296.966c-16.652,-72.16 -34.692,-135.994 -54.12,-191.501c-19.428,-55.508 -37.468,-97.601 -54.12,-126.28c-16.652,-28.679 -30.992,-51.345 -43.018,-67.997c-12.027,-16.652 -24.054,-30.529 -36.08,-41.631c-12.027,-11.101 -18.965,-17.577 -20.816,-19.427c-25.903,-114.716 -54.582,-210.004 -86.037,-285.865c-31.454,-75.86 -58.745,-127.667 -81.873,-155.421c-23.129,-27.754 -44.869,-58.283 -65.222,-91.588c-20.353,-33.304 -34.23,-70.31 -41.631,-111.015c-7.401,-38.855 -1.85,-88.35 16.653,-148.483c18.502,-60.133 22.665,-105.927 12.489,-137.382c-10.176,-31.454 -51.345,-54.582 -123.505,-69.384c-27.753,-5.551 -68.922,-22.203 -123.504,-49.957c-54.583,-27.754 -87.425,-42.556 -98.526,-44.406c-14.802,-1.85 -24.979,-25.904 -30.529,-72.16c-5.551,-46.256 1.85,-93.438 22.203,-141.544c20.352,-48.107 53.657,-73.086 99.913,-74.936c68.46,-5.551 115.641,22.203 141.545,83.262c25.904,61.058 29.604,114.715 11.101,160.972c-20.352,35.155 -22.203,59.671 -5.55,73.547c16.652,13.877 44.406,14.34 83.261,1.388c24.053,-7.401 36.08,-40.705 36.08,-99.914l0,-102.689c-9.251,-55.507 -21.74,-101.764 -37.468,-138.769c-15.727,-37.005 -35.154,-65.221 -58.283,-84.649c-23.128,-19.428 -44.868,-33.305 -65.221,-41.631c-20.353,-8.326 -45.331,-15.264 -74.935,-20.815c-197.978,14.802 -280.314,138.769 -247.009,371.901c0,27.754 -0.926,41.631 -2.776,41.631c-16.652,-16.652 -43.943,-26.366 -81.874,-29.142c-37.93,-2.775 -68.459,-2.313 -91.587,1.388c-23.128,3.701 -37.468,-0.925 -43.019,-13.877c1.851,-105.464 -12.951,-188.726 -44.406,-249.784c-31.454,-61.059 -73.085,-92.513 -124.892,-94.363c-49.957,-1.851 -88.35,23.59 -115.178,76.323c-26.829,52.732 -42.094,107.777 -45.794,165.135c-1.85,27.754 1.388,61.983 9.714,102.689c8.326,40.706 20.353,75.398 36.08,104.077c15.727,28.679 30.066,41.168 43.018,37.468c18.503,-5.551 33.305,-18.503 44.406,-38.856c7.401,-16.652 0.925,-24.053 -19.427,-22.203c-12.952,0 -27.292,-13.414 -43.019,-40.243c-15.727,-26.829 -24.516,-57.82 -26.366,-92.975c-1.85,-40.706 6.476,-74.935 24.978,-102.689c18.503,-27.754 49.957,-40.706 94.363,-38.856c31.455,0 56.433,19.428 74.936,58.283c18.502,38.856 27.291,74.936 26.366,108.24c-0.925,33.305 -2.313,53.658 -4.163,61.059c-40.706,27.753 -69.385,54.582 -86.037,80.486c-14.802,22.203 -40.243,43.943 -76.323,65.221c-36.08,21.278 -55.045,32.842 -56.895,34.693c-24.054,25.903 -38.393,50.882 -43.019,74.935c-4.625,24.053 2.313,40.705 20.816,49.957c25.903,14.802 49.031,32.842 69.384,54.12c20.353,21.278 35.155,38.855 44.406,52.732c9.252,13.877 26.366,25.904 51.345,36.08c24.978,10.176 57.82,16.19 98.526,18.04c86.962,3.7 181.325,-10.176 283.089,-41.631c3.7,-1.85 24.978,-8.326 63.834,-19.428c38.855,-11.101 70.772,-20.815 95.75,-29.141c24.979,-8.326 52.27,-20.353 81.874,-36.08c29.604,-15.727 49.032,-31.917 58.283,-48.569c16.652,-25.904 35.155,-33.305 55.508,-22.203c9.251,5.551 15.264,13.414 18.04,23.591c2.775,10.176 0,21.277 -8.326,33.304c-8.326,12.027 -23.591,20.815 -45.794,26.366c-37.005,11.102 -89.275,30.992 -156.809,59.671c-67.535,28.679 -109.628,46.719 -126.28,54.12c-81.411,35.155 -146.17,56.433 -194.277,63.834c-46.256,9.251 -119.341,7.401 -219.255,-5.551c-18.503,-3.701 -26.829,-1.85 -24.979,5.551c1.851,7.401 17.578,24.978 47.182,52.732c46.256,42.556 108.24,62.909 185.951,61.058c31.454,-1.85 64.759,-8.326 99.913,-19.427c35.155,-11.102 68.46,-24.054 99.914,-38.856c31.454,-14.802 62.446,-30.991 92.975,-48.569c30.53,-17.577 58.283,-33.304 83.262,-47.181c24.978,-13.877 47.644,-24.979 67.997,-33.305c20.353,-8.326 36.542,-10.639 48.569,-6.938c12.027,3.7 19.89,13.877 23.591,30.529c0,3.7 -0.925,7.863 -2.776,12.489c-1.85,4.626 -5.55,9.251 -11.101,13.877c-5.551,4.626 -11.102,8.789 -16.653,12.489c-5.55,3.701 -13.414,8.326 -23.59,13.877c-10.177,5.551 -18.503,9.714 -24.979,12.489c-6.476,2.776 -15.727,7.401 -27.754,13.877c-12.026,6.476 -20.815,10.639 -26.366,12.489c-51.807,25.904 -114.253,66.61 -187.338,122.117c-73.085,55.508 -134.606,95.288 -184.563,119.342c-49.957,24.053 -95.288,24.978 -135.994,2.775c-38.855,-20.353 -97.138,-87.887 -174.849,-202.603c-40.705,-57.358 -63.833,-77.711 -69.384,-61.058c-1.851,5.551 -2.776,14.802 -2.776,27.754c0,46.256 -13.877,98.526 -41.63,156.809c-27.754,58.283 -55.045,109.627 -81.874,154.033c-26.829,44.407 -46.257,98.064 -58.283,160.973c-12.027,62.908 -1.388,121.191 31.917,174.849c-42.556,11.101 -100.377,94.363 -173.462,249.784c-73.085,155.421 -117.028,285.864 -131.83,391.329c-3.701,33.305 -5.089,97.138 -4.163,191.501c0.925,94.363 -4.163,148.946 -15.265,163.748c-14.802,44.406 -41.631,47.181 -80.486,8.326c-59.208,-57.358 -92.513,-144.32 -99.914,-260.886c-3.7,-51.807 0,-103.614 11.102,-155.421c7.401,-35.155 6.476,-51.807 -2.776,-49.957c-3.7,1.85 -7.401,6.476 -11.101,13.877c-66.609,120.266 -57.358,273.837 27.754,460.713c9.251,22.203 32.379,48.107 69.384,77.711c37.005,29.604 59.208,48.107 66.609,55.508c37.005,42.555 133.219,126.279 288.64,251.172c155.421,124.892 241.458,195.664 258.111,212.316c29.604,27.754 45.793,62.909 48.569,105.465c2.775,42.556 -10.177,82.336 -38.856,119.341c-28.678,37.005 -70.772,58.283 -126.279,63.834c14.802,27.754 41.63,68.922 80.486,123.505c38.855,54.582 64.759,104.539 77.71,149.87c12.952,45.332 19.428,110.553 19.428,195.665c85.112,-44.406 91.588,-129.518 19.428,-255.335c-7.401,-14.802 -17.115,-29.605 -29.142,-44.407c-12.026,-14.802 -20.815,-25.903 -26.366,-33.304c-5.551,-7.401 -7.401,-12.952 -5.551,-16.652c5.551,-9.252 17.578,-18.04 36.08,-26.367c18.503,-8.326 37.005,-6.013 55.508,6.939c85.112,96.213 238.683,129.518 460.713,99.914c246.084,-27.754 409.832,-108.24 491.243,-241.459c42.556,-70.309 74.01,-98.063 94.363,-83.261c22.203,11.101 31.454,59.208 27.754,144.32c-1.85,46.256 -23.128,131.368 -63.834,255.335c-16.652,42.556 -22.203,77.248 -16.652,104.077c5.551,26.829 27.754,41.168 66.609,43.018c5.551,-35.155 18.965,-106.389 40.243,-213.704c21.278,-107.315 33.767,-190.576 37.468,-249.785c3.7,-38.855 -2.313,-106.852 -18.04,-203.99c-15.727,-97.139 -22.666,-186.876 -20.816,-269.212c1.851,-82.337 23.128,-147.558 63.834,-195.665c27.754,-33.304 74.935,-49.957 141.545,-49.957c1.85,-68.459 33.767,-117.491 95.75,-147.095c61.984,-29.604 129.056,-39.318 201.216,-29.141c72.159,10.176 127.667,30.991 166.522,62.446Zm-1742.94,-2295.24c5.551,-31.455 3.238,-59.209 -6.938,-83.262c-10.176,-24.053 -20.815,-37.93 -31.917,-41.631c-16.652,-3.7 -24.978,2.776 -24.978,19.428c3.7,9.251 8.326,14.802 13.876,16.652c18.503,0 24.979,13.877 19.428,41.631c-5.551,37.005 1.85,55.508 22.203,55.508c5.551,0 8.326,-2.776 8.326,-8.326Zm1162.89,546.75c-3.701,-14.802 -9.714,-25.441 -18.04,-31.917c-8.327,-6.476 -20.353,-11.102 -36.08,-13.877c-15.728,-2.775 -29.142,-7.864 -40.243,-15.265c-9.252,-5.55 -18.04,-12.951 -26.367,-22.203c-8.326,-9.251 -14.802,-16.652 -19.427,-22.203c-4.626,-5.55 -9.714,-11.564 -15.265,-18.04c-5.551,-6.476 -9.251,-10.176 -11.101,-11.101c-1.851,-0.925 -5.551,0.462 -11.102,4.163c-25.903,29.604 -19.428,69.847 19.428,120.729c38.855,50.882 74.935,80.024 108.24,87.425c16.652,1.85 30.066,-5.551 40.243,-22.203c10.176,-16.653 13.414,-35.155 9.714,-55.508Zm-494.019,-591.157c0,-20.352 -4.625,-38.392 -13.876,-54.12c-9.252,-15.727 -19.428,-27.291 -30.53,-34.692c-11.101,-7.401 -19.427,-10.176 -24.978,-8.326c-11.102,0 -18.503,1.85 -22.203,5.551c-3.701,3.7 -3.701,7.401 0,11.101c3.7,3.701 8.326,6.476 13.877,8.327c25.903,7.401 42.556,36.079 49.957,86.036c0,5.551 7.401,3.701 22.203,-5.55c3.7,-3.701 5.55,-6.476 5.55,-8.327Zm149.871,-646.664c0,-3.7 -2.313,-8.326 -6.938,-13.877c-4.626,-5.55 -12.952,-12.026 -24.979,-19.427c-12.026,-7.401 -20.815,-12.952 -26.366,-16.653c-27.754,-27.753 -49.957,-41.63 -66.609,-41.63c-16.652,1.85 -27.291,8.788 -31.917,20.815c-4.626,12.027 -5.551,24.053 -2.775,36.08c2.775,12.027 2.312,23.591 -1.388,34.692c-1.85,7.401 -7.401,17.115 -16.652,29.142c-9.252,12.027 -14.802,20.353 -16.653,24.978c-1.85,4.626 0.926,12.49 8.327,23.591c7.401,5.551 14.802,5.551 22.203,0c7.401,-5.551 17.577,-13.877 30.529,-24.978c12.952,-11.102 26.828,-19.428 41.631,-24.979c1.85,-1.85 10.176,-2.775 24.978,-2.775c14.802,0 28.679,-1.85 41.631,-5.551c12.951,-3.7 21.278,-10.176 24.978,-19.428Zm1568.09,3721.79c37.005,22.203 65.684,44.869 86.037,67.997c20.353,23.128 31.454,45.331 33.305,66.609c1.85,21.278 -0.463,42.093 -6.939,62.446c-6.476,20.353 -20.815,40.706 -43.018,61.059c-22.203,20.352 -43.944,38.392 -65.222,54.12c-21.278,15.727 -49.032,32.842 -83.261,51.344c-34.23,18.503 -63.371,33.767 -87.425,45.794c-24.053,12.027 -53.657,26.366 -88.812,43.018c-35.155,16.653 -60.133,28.679 -74.935,36.08c-70.31,35.155 -149.408,86.962 -237.296,155.422c-87.887,68.459 -157.734,127.667 -209.541,177.624c-31.454,29.604 -94.363,47.644 -188.726,54.12c-94.363,6.476 -176.699,-6.938 -247.009,-40.243c-33.305,-16.652 -60.596,-38.393 -81.874,-65.221c-21.278,-26.829 -36.542,-50.42 -45.794,-70.773c-9.251,-20.352 -29.604,-38.392 -61.058,-54.12c-31.454,-15.727 -74.935,-24.515 -130.443,-26.366c-81.411,-1.85 -201.678,-2.775 -360.8,-2.775c-35.154,0 -87.887,1.388 -158.196,4.163c-70.31,2.775 -123.967,5.088 -160.973,6.938c-81.411,1.851 -154.958,15.728 -220.642,41.631c-65.684,25.904 -115.179,53.658 -148.483,83.262c-33.305,29.604 -73.548,55.97 -120.73,79.098c-47.181,23.128 -96.675,33.767 -148.482,31.917c-53.658,-1.85 -156.347,-30.529 -308.068,-86.037c-151.721,-55.508 -286.789,-95.288 -405.206,-119.341c-35.155,-7.401 -82.336,-16.19 -141.544,-26.367c-59.208,-10.176 -105.465,-18.502 -138.769,-24.978c-33.305,-6.476 -69.847,-15.265 -109.628,-26.366c-39.78,-11.102 -70.772,-24.516 -92.975,-40.243c-22.203,-15.727 -37.93,-33.767 -47.182,-54.12c-18.502,-42.556 -12.026,-104.077 19.428,-184.563c31.454,-80.486 48.107,-130.906 49.957,-151.258c1.85,-29.604 -1.85,-66.61 -11.102,-111.016c-9.251,-44.406 -18.502,-83.724 -27.754,-117.953c-9.251,-34.23 -13.414,-67.997 -12.489,-101.302c0.925,-33.304 10.639,-58.283 29.142,-74.935c25.903,-22.203 78.636,-35.155 158.197,-38.855c79.56,-3.701 135.068,-14.803 166.522,-33.305c55.508,-33.305 94.363,-65.684 116.567,-97.138c22.203,-31.455 33.304,-78.636 33.304,-141.545c38.855,135.069 9.251,233.132 -88.812,294.191c-59.208,37.005 -135.994,50.882 -230.357,41.63c-62.909,-5.55 -102.689,3.701 -119.341,27.754c-24.054,27.754 -19.428,80.486 13.877,158.197c3.7,11.101 11.101,27.754 22.203,49.957c11.101,22.203 18.965,38.855 23.59,49.957c4.626,11.101 8.789,26.828 12.49,47.181c3.7,20.353 4.625,40.706 2.775,61.059c0,27.753 -15.727,73.085 -47.181,135.993c-31.455,62.909 -44.407,107.315 -38.856,133.219c5.551,31.454 39.781,55.507 102.689,72.16c37.005,11.101 115.179,28.216 234.52,51.344c119.342,23.128 211.392,42.093 276.151,56.896c44.406,11.101 112.865,31.454 205.378,61.058c92.513,29.604 168.836,50.882 228.969,63.834c60.133,12.951 111.478,16.652 154.034,11.101c79.561,-11.101 139.231,-37.005 179.012,-77.71c39.78,-40.706 61.058,-85.112 63.834,-133.219c2.775,-48.106 -4.163,-102.226 -20.816,-162.36c-16.652,-60.133 -34.229,-108.24 -52.732,-144.32c-18.503,-36.08 -37.005,-69.847 -55.508,-101.301c-223.88,-351.548 -380.227,-575.429 -469.039,-671.643c-125.818,-136.918 -230.357,-173.923 -313.618,-111.015c-20.353,16.652 -34.23,2.776 -41.631,-41.631c-5.551,-29.604 -7.401,-64.758 -5.551,-105.464c1.85,-53.657 11.102,-101.764 27.754,-144.32c16.652,-42.556 38.855,-86.037 66.609,-130.443c27.754,-44.406 48.107,-83.261 61.059,-116.566c14.802,-38.855 39.317,-105.465 73.547,-199.828c34.23,-94.363 61.521,-166.522 81.874,-216.479c20.353,-49.957 48.107,-106.39 83.261,-169.299c35.155,-62.908 71.235,-112.865 108.24,-149.87c203.528,-264.587 318.244,-444.987 344.148,-541.2c-22.203,-207.228 -37.005,-494.018 -44.406,-860.368c-3.701,-166.523 18.502,-306.68 66.609,-420.471c48.106,-113.79 146.17,-210.466 294.19,-290.027c72.16,-38.856 168.373,-58.283 288.64,-58.283c98.064,-1.85 196.127,10.639 294.191,37.467c98.063,26.829 180.399,65.222 247.009,115.179c105.464,77.71 190.113,190.113 253.947,337.209c63.834,147.095 91.125,283.551 81.874,409.369c-9.251,175.774 18.502,373.751 83.261,593.931c62.909,209.079 185.951,410.757 369.126,605.034c101.764,109.165 193.814,259.961 276.151,452.387c82.336,192.427 137.381,369.126 165.135,530.098c14.802,90.663 19.428,168.836 13.877,234.52c-5.551,65.684 -16.652,117.029 -33.305,154.034c-16.652,37.005 -35.155,57.358 -55.507,61.058c-18.503,3.701 -40.243,21.278 -65.222,52.732c-24.978,31.455 -49.957,64.297 -74.935,98.526c-24.979,34.23 -62.446,65.222 -112.403,92.976c-49.957,27.754 -106.39,40.705 -169.298,38.855c-33.305,-1.85 -62.447,-6.476 -87.425,-13.877c-24.978,-7.401 -45.794,-19.89 -62.446,-37.468c-16.652,-17.577 -29.142,-31.916 -37.468,-43.018c-8.326,-11.101 -18.965,-30.067 -31.917,-56.895c-12.951,-26.829 -21.278,-44.869 -24.978,-54.12c-40.706,-68.46 -78.636,-96.214 -113.791,-83.262c-35.155,12.952 -61.058,58.283 -77.711,135.994c-16.652,77.711 -10.176,167.448 19.428,269.212c37.005,129.518 37.93,309.918 2.776,541.2c-18.503,120.266 -1.851,213.242 49.956,278.926c51.808,65.684 119.342,96.213 202.603,91.587c83.262,-4.625 161.898,-37.467 235.908,-98.526c109.165,-90.662 191.964,-152.183 248.397,-184.563c56.432,-32.379 152.183,-71.697 287.252,-117.954c98.063,-33.304 169.298,-67.071 213.704,-101.301c44.406,-34.23 61.521,-66.147 51.345,-95.751c-10.177,-29.604 -33.305,-55.97 -69.385,-79.098c-36.08,-23.128 -83.724,-44.869 -142.932,-65.222c-61.059,-20.352 -106.852,-64.759 -137.382,-133.218c-30.529,-68.459 -44.406,-135.531 -41.63,-201.215c2.775,-65.684 17.115,-109.628 43.018,-131.831c1.85,57.358 9.251,109.628 22.203,156.809c12.952,47.182 26.366,84.649 40.243,112.403c13.877,27.754 32.842,54.12 56.896,79.099c24.053,24.978 43.481,42.556 58.283,52.732c14.802,10.176 34.692,22.203 59.67,36.08c24.979,13.877 40.243,22.666 45.794,26.366Z" style="fill-rule:nonzero;"/></svg>