<?xml version="1.0" encoding="UTF-8"?>
<svg xmlns="http://www.w3.org/2000/svg" xmlns:xlink="http://www.w3.org/1999/xlink"
     width="1150" height="573" viewBox="0 0 1150 573">
<defs>
<marker markerWidth="4.0" markerHeight="4.04" viewBox="-0.1 -0.51 1.0 1.01" orient="auto" id="d0">
<path d="M-0.1,0.5 L-0.1,-0.5 L0.9,0 Z" fill="red" />
</marker>
<marker markerWidth="4.0" markerHeight="4.04" viewBox="-0.1 -0.51 1.0 1.01" orient="auto" id="d1">
<path d="M-0.1,0.5 L-0.1,-0.5 L0.9,0 Z" fill="red" />
</marker>
<marker markerWidth="4.0" markerHeight="4.04" viewBox="-0.1 -0.51 1.0 1.01" orient="auto" id="d2">
<path d="M-0.1,0.5 L-0.1,-0.5 L0.9,0 Z" fill="red" />
</marker>
<marker markerWidth="4.0" markerHeight="4.04" viewBox="-0.1 -0.51 1.0 1.01" orient="auto" id="d3">
<path d="M-0.1,0.5 L-0.1,-0.5 L0.9,0 Z" fill="red" />
</marker>
<marker markerWidth="4.0" markerHeight="4.04" viewBox="-0.1 -0.51 1.0 1.01" orient="auto" id="d4">
<path d="M-0.1,0.5 L-0.1,-0.5 L0.9,0 Z" fill="red" />
</marker>
<marker markerWidth="4.0" markerHeight="4.04" viewBox="-0.1 -0.51 1.0 1.01" orient="auto" id="d5">
<path d="M-0.1,0.5 L-0.1,-0.5 L0.9,0 Z" fill="red" />
</marker>
</defs>
<g id="title" onclick="this.style.stroke = 'green'; ">
<text x="575.0" y="25" font-size="30" text-anchor="middle" dominant-baseline="central">甘特图标题</text>
</g>
<g id="calendar">
<g id="table">
<title>表格</title>
<text x="5" y="130" font-size="20" fill="#555555">任务</text>
<path d="M189,110 L189,573" stroke="grey" />
<text x="189" y="130" font-size="20" fill="#555555">开始日期</text>
<path d="M289,110 L289,573" stroke="grey" />
<text x="289" y="130" font-size="20" fill="#555555">截止日期</text>
<path d="M389,110 L389,573" stroke="grey" />
<text x="389" y="130" font-size="20" fill="#555555">工时</text>
<path d="M439,110 L439,573" stroke="grey" />
<text x="439" y="130" font-size="20" fill="#555555">资源</text>
</g>
<g id="year2023">
<g id="month3">
<g id="week09">
<text x="534" y="70" font-size="20" fill="#555555">2023年03月</text>
<text x="534" y="100" font-size="20" fill="#555555">三</text>
<rect x="530" y="110" width="30" height="463" fill="#cccccc">
<title>1</title>
</rect>
<text x="540" y="130" font-size="20" fill="#555555">1</text>
<text x="565" y="100" font-size="20" fill="#555555">四</text>
<rect x="561" y="110" width="30" height="463" fill="#cccccc">
<title>2</title>
</rect>
<text x="571" y="130" font-size="20" fill="#555555">2</text>
<text x="596" y="100" font-size="20" fill="#555555">五</text>
<rect x="592" y="110" width="30" height="463" fill="#cccccc">
<title>3</title>
</rect>
<text x="602" y="130" font-size="20" fill="#555555">3</text>
<text x="627" y="100" font-size="20" fill="#555555">六</text>
<rect x="623" y="110" width="30" height="463" fill="#dddddd">
<title>4</title>
</rect>
<text x="633" y="130" font-size="20" fill="#555555">4</text>
<path d="M684,80 L684,573" stroke="black" />
<text x="658" y="100" font-size="20" fill="#555555">日</text>
<rect x="654" y="110" width="30" height="463" fill="#dddddd">
<title>5</title>
</rect>
<text x="664" y="130" font-size="20" fill="#555555">5</text>
</g>
<g id="week10">
<text x="689" y="100" font-size="20" fill="#555555">一</text>
<rect x="685" y="110" width="30" height="463" fill="#cccccc">
<title>6</title>
</rect>
<text x="695" y="130" font-size="20" fill="#555555">6</text>
<text x="720" y="100" font-size="20" fill="#555555">二</text>
<rect x="716" y="110" width="30" height="463" fill="#cccccc">
<title>7</title>
</rect>
<text x="726" y="130" font-size="20" fill="#555555">7</text>
<text x="751" y="100" font-size="20" fill="#555555">三</text>
<rect x="747" y="110" width="30" height="463" fill="#cccccc">
<title>8</title>
</rect>
<text x="757" y="130" font-size="20" fill="#555555">8</text>
<text x="782" y="100" font-size="20" fill="#555555">四</text>
<rect x="778" y="110" width="30" height="463" fill="#cccccc">
<title>9</title>
</rect>
<text x="788" y="130" font-size="20" fill="#555555">9</text>
<text x="813" y="100" font-size="20" fill="#555555">五</text>
<rect x="809" y="110" width="30" height="463" fill="#cccccc">
<title>10</title>
</rect>
<text x="809" y="130" font-size="20" fill="#555555">10</text>
<text x="844" y="100" font-size="20" fill="#555555">六</text>
<rect x="840" y="110" width="30" height="463" fill="#dddddd">
<title>11</title>
</rect>
<text x="840" y="130" font-size="20" fill="#555555">11</text>
<path d="M901,80 L901,573" stroke="black" />
<text x="875" y="100" font-size="20" fill="#555555">日</text>
<rect x="871" y="110" width="30" height="463" fill="#dddddd">
<title>12</title>
</rect>
<text x="871" y="130" font-size="20" fill="#555555">12</text>
</g>
<g id="week11">
<text x="906" y="100" font-size="20" fill="#555555">一</text>
<rect x="902" y="110" width="30" height="463" fill="#cccccc">
<title>13</title>
</rect>
<text x="902" y="130" font-size="20" fill="#555555">13</text>
<text x="937" y="100" font-size="20" fill="#555555">二</text>
<rect x="933" y="110" width="30" height="463" fill="#cccccc">
<title>14</title>
</rect>
<text x="933" y="130" font-size="20" fill="#555555">14</text>
<text x="968" y="100" font-size="20" fill="#555555">三</text>
<rect x="964" y="110" width="30" height="463" fill="#cccccc">
<title>15</title>
</rect>
<text x="964" y="130" font-size="20" fill="#555555">15</text>
<text x="999" y="100" font-size="20" fill="#555555">四</text>
<rect x="995" y="110" width="30" height="463" fill="#cccccc">
<title>16</title>
</rect>
<text x="995" y="130" font-size="20" fill="#555555">16</text>
<text x="1030" y="100" font-size="20" fill="#555555">五</text>
<rect x="1026" y="110" width="30" height="463" fill="#cccccc">
<title>17</title>
</rect>
<text x="1026" y="130" font-size="20" fill="#555555">17</text>
<text x="1061" y="100" font-size="20" fill="#555555">六</text>
<rect x="1057" y="110" width="30" height="463" fill="#dddddd">
<title>18</title>
</rect>
<text x="1057" y="130" font-size="20" fill="#555555">18</text>
<path d="M1118,80 L1118,573" stroke="black" />
<text x="1092" y="100" font-size="20" fill="#555555">日</text>
<rect x="1088" y="110" width="30" height="463" fill="#dddddd">
<title>19</title>
</rect>
<text x="1088" y="130" font-size="20" fill="#555555">19</text>
</g>
<g id="week12">
<path d="M1149,50 L1149,573" stroke="black" />
<text x="1123" y="100" font-size="20" fill="#555555">一</text>
<rect x="1119" y="110" width="30" height="463" fill="#cccccc">
<title>20</title>
</rect>
<text x="1119" y="130" font-size="20" fill="#555555">20</text>
</g>
</g>
</g>
<path d="M1,80 L1150,80" stroke="grey" />
<path d="M1,110 L1150,110" stroke="grey" />
<path d="M1,140 L1150,140" stroke="grey" />
<path d="M1,50 L1150,50" stroke="grey" />
<path d="M529,80 L529,573" stroke="grey" />
</g>
<g id="tasks">
<g id="task">
<g id="text">
<text x="5" y="160" font-size="20" text-anchor="start">任务组</text>
<text x="189" y="160" font-size="20" text-anchor="start">2023-03-01</text>
<text x="289" y="160" font-size="20" text-anchor="start">2023-03-10</text>
<text x="399" y="160" font-size="20" text-anchor="start">10</text>
<text x="439" y="160" font-size="20" text-anchor="start">admin</text>
</g>
<g id="item">
<path d="M530,147 L839,147 L839,164 L829,155 L540,155 L530,164 L530,147" fill="black" stroke="black" />
<path d="M1,170 L1150,170" stroke="grey" />
</g>
</g>
<g id="task">
<g id="text">
<text x="35" y="191" font-size="20" text-anchor="start">aaa</text>
<text x="189" y="191" font-size="20" text-anchor="start">2023-03-03</text>
<text x="289" y="191" font-size="20" text-anchor="start">2023-03-04</text>
<text x="399" y="191" font-size="20" text-anchor="start">2</text>
<text x="439" y="191" font-size="20" text-anchor="start">test</text>
</g>
<g id="item">
<rect x="592" y="175" width="61" height="20" fill="#67AAFF" stroke="black">
<title>aaa</title>
</rect>
<path d="M1,201 L1150,201" stroke="grey" />
</g>
</g>
<g id="task">
<g id="text">
<text x="35" y="222" font-size="20" text-anchor="start">bbb</text>
<text x="189" y="222" font-size="20" text-anchor="start">2023-03-05</text>
<text x="289" y="222" font-size="20" text-anchor="start">2023-03-07</text>
<text x="399" y="222" font-size="20" text-anchor="start">3</text>
<text x="439" y="222" font-size="20" text-anchor="start"></text>
</g>
<g id="item">
<rect x="654" y="206" width="92" height="20" fill="#67AAFF" stroke="black">
<title>bbb</title>
</rect>
<path d="M1,232 L1150,232" stroke="grey" />
</g>
</g>
<g id="task">
<g id="text">
<text x="35" y="253" font-size="20" text-anchor="start">ccc</text>
<text x="189" y="253" font-size="20" text-anchor="start">2023-03-08</text>
<text x="289" y="253" font-size="20" text-anchor="start">2023-03-10</text>
<text x="399" y="253" font-size="20" text-anchor="start">3</text>
<text x="439" y="253" font-size="20" text-anchor="start">test</text>
</g>
<g id="item">
<rect x="747" y="237" width="92" height="20" fill="#67AAFF" stroke="black">
<title>ccc</title>
</rect>
<path d="M1,263 L1150,263" stroke="grey" />
</g>
</g>
<g id="task">
<g id="text">
<text x="35" y="284" font-size="20" text-anchor="start">ddd</text>
<text x="189" y="284" font-size="20" text-anchor="start">2023-03-08</text>
<text x="289" y="284" font-size="20" text-anchor="start">2023-03-10</text>
<text x="399" y="284" font-size="20" text-anchor="start">3</text>
<text x="439" y="284" font-size="20" text-anchor="start"></text>
</g>
<g id="item">
<rect x="747" y="268" width="92" height="20" fill="#67AAFF" stroke="black">
<title>ddd</title>
</rect>
<path d="M1,294 L1150,294" stroke="grey" />
</g>
</g>
<g id="task">
<g id="text">
<text x="35" y="315" font-size="20" text-anchor="start">aaabbb</text>
<text x="189" y="315" font-size="20" text-anchor="start">2023-03-02</text>
<text x="289" y="315" font-size="20" text-anchor="start">2023-03-03</text>
<text x="399" y="315" font-size="20" text-anchor="start">2</text>
<text x="439" y="315" font-size="20" text-anchor="start">closed</text>
</g>
<g id="item">
<path d="M576,299 L587,310 L576,321 L565,310 L576,299 Z" fill="black" />
<text x="591" y="315" font-size="18" text-anchor="start" fill="black">2023年03月02日</text>
<path d="M1,325 L1150,325" stroke="grey" />
</g>
</g>
<g id="task">
<g id="text">
<text x="5" y="346" font-size="20" text-anchor="start">aaa</text>
<text x="189" y="346" font-size="20" text-anchor="start">2023-03-11</text>
<text x="289" y="346" font-size="20" text-anchor="start">2023-03-20</text>
<text x="399" y="346" font-size="20" text-anchor="start">10</text>
<text x="439" y="346" font-size="20" text-anchor="start">test</text>
</g>
<g id="item">
<rect x="840" y="330" width="309" height="20" fill="#67AAFF" stroke="black">
<title>aaa</title>
</rect>
<path d="M1,356 L1150,356" stroke="grey" />
</g>
</g>
<g id="task">
<g id="text">
<text x="5" y="377" font-size="20" text-anchor="start">eeeee</text>
<text x="189" y="377" font-size="20" text-anchor="start">2023-03-10</text>
<text x="289" y="377" font-size="20" text-anchor="start">2023-03-13</text>
<text x="399" y="377" font-size="20" text-anchor="start">4</text>
<text x="439" y="377" font-size="20" text-anchor="start"></text>
</g>
<g id="item">
<path d="M824,361 L835,372 L824,383 L813,372 L824,361 Z" fill="black" />
<text x="839" y="377" font-size="18" text-anchor="start" fill="black">2023年03月10日</text>
<path d="M1,387 L1150,387" stroke="grey" />
</g>
</g>
<g id="task">
<g id="text">
<text x="5" y="408" font-size="20" text-anchor="start">主任务主任务主任务</text>
<text x="189" y="408" font-size="20" text-anchor="start">2023-03-10</text>
<text x="289" y="408" font-size="20" text-anchor="start">2023-03-19</text>
<text x="399" y="408" font-size="20" text-anchor="start">10</text>
<text x="439" y="408" font-size="20" text-anchor="start"></text>
</g>
<g id="item">
<path d="M809,395 L1118,395 L1118,412 L1108,403 L819,403 L809,412 L809,395" fill="black" stroke="black" />
<path d="M1,418 L1150,418" stroke="grey" />
</g>
</g>
<g id="task">
<g id="text">
<text x="35" y="439" font-size="20" text-anchor="start">子任务1</text>
<text x="189" y="439" font-size="20" text-anchor="start">2023-03-10</text>
<text x="289" y="439" font-size="20" text-anchor="start">2023-03-11</text>
<text x="399" y="439" font-size="20" text-anchor="start">2</text>
<text x="439" y="439" font-size="20" text-anchor="start">test</text>
</g>
<g id="item">
<rect x="809" y="423" width="61" height="20" fill="#67AAFF" stroke="black">
<title>子任务1</title>
</rect>
<path d="M1,449 L1150,449" stroke="grey" />
</g>
</g>
<g id="task">
<g id="text">
<text x="35" y="470" font-size="20" text-anchor="start">子任务2</text>
<text x="189" y="470" font-size="20" text-anchor="start">2023-03-12</text>
<text x="289" y="470" font-size="20" text-anchor="start">2023-03-14</text>
<text x="399" y="470" font-size="20" text-anchor="start">3</text>
<text x="439" y="470" font-size="20" text-anchor="start">test</text>
</g>
<g id="item">
<rect x="871" y="454" width="92" height="20" fill="#67AAFF" stroke="black">
<title>子任务2</title>
</rect>
<path d="M1,480 L1150,480" stroke="grey" />
</g>
</g>
<g id="task">
<g id="text">
<text x="35" y="501" font-size="20" text-anchor="start">子任务3</text>
<text x="189" y="501" font-size="20" text-anchor="start">2023-03-15</text>
<text x="289" y="501" font-size="20" text-anchor="start">2023-03-19</text>
<text x="399" y="501" font-size="20" text-anchor="start">5</text>
<text x="439" y="501" font-size="20" text-anchor="start">test</text>
</g>
<g id="item">
<rect x="964" y="485" width="154" height="20" fill="#67AAFF" stroke="black">
<title>子任务3</title>
</rect>
<path d="M1,511 L1150,511" stroke="grey" />
</g>
</g>
<g id="task">
<g id="text">
<text x="5" y="532" font-size="20" text-anchor="start">任务3</text>
<text x="189" y="532" font-size="20" text-anchor="start">2023-03-15</text>
<text x="289" y="532" font-size="20" text-anchor="start">2023-03-19</text>
<text x="399" y="532" font-size="20" text-anchor="start">5</text>
<text x="439" y="532" font-size="20" text-anchor="start">test</text>
</g>
<g id="item">
<rect x="964" y="516" width="154" height="20" fill="#67AAFF" stroke="black">
<title>任务3</title>
</rect>
<path d="M1,542 L1150,542" stroke="grey" />
</g>
</g>
</g>
<g id="handover">
<g id="link">
<path d="M654,186 H669 V197" stroke="red" stroke-width="2" fill="none" marker-end="url(#d0)" />
</g>
<g id="link">
<path d="M747,217 H762 V228" stroke="red" stroke-width="2" fill="none" marker-end="url(#d1)" />
</g>
<g id="link">
<path d="M747,217 H762 V259" stroke="red" stroke-width="2" fill="none" marker-end="url(#d2)" />
</g>
<g id="link">
<path d="M840,279 H824 V414" stroke="red" stroke-width="2" fill="none" marker-end="url(#d3)" />
</g>
<g id="link">
<path d="M871,434 H886 V445" stroke="red" stroke-width="2" fill="none" marker-end="url(#d4)" />
</g>
<g id="link">
<path d="M964,465 H979 V476" stroke="red" stroke-width="2" fill="none" marker-end="url(#d5)" />
</g>
</g>
<text x="870" y="40" font-size="15" text-anchor="start" fill="grey">https://www.netkiller.cn - design by netkiller</text>
<rect x="0" y="0" width="1149" height="572" fill="none" stroke="black" />
</svg>